<svg width="429.00000000000006" height="40.713952238362694" viewBox="0 0 369.7027027027027 35.08638270450219" class="css-1j8o68f"><defs id="SvgjsDefs1376"></defs><g id="SvgjsG1377" featurekey="5TMTKC-0" transform="matrix(0.5332276759455998,0,0,0.5332276759455998,-3.5726255813931806,-8.851579624107172)" fill="#ffffff"><g xmlns="http://www.w3.org/2000/svg"><g><path d="M54.9,51.9l-8.2-14.1c-7.6,1.6-13.7,7-16.3,14.1H54.9z"></path><path d="M59.8,58.8L68,44.6c-4.1-4.5-10-7.4-16.6-7.4c-1.3,0-2.6,0.1-3.8,0.3L59.8,58.8z"></path><path d="M72.7,66.5c0.7-2.2,1.1-4.5,1.1-6.9c0-5.4-1.9-10.4-5.2-14.3L56.4,66.5H72.7z"></path><path d="M42.9,60.5l-8.2,14.1c4.1,4.5,10,7.4,16.6,7.4c1.3,0,2.6-0.1,3.8-0.3L42.9,60.5z"></path><path d="M46.4,52.7H30.1c-0.7,2.2-1.1,4.5-1.1,6.9c0,5.4,1.9,10.4,5.2,14.3L46.4,52.7z"></path><path d="M47.9,67.4l8.2,14.1c7.6-1.6,13.7-7,16.3-14.1H47.9z"></path></g><g><g><path d="M91.8,82.4h-6.7c-0.5,0-1-0.4-1-1c0-0.5,0.4-1,1-1h6.7c1,0,1.7-0.8,1.7-1.7v-41c0-1-0.8-1.7-1.7-1.7h-6.7     c-0.5,0-1-0.4-1-1c0-0.5,0.4-1,1-1h6.7c2,0,3.6,1.6,3.6,3.6v41C95.4,80.7,93.8,82.4,91.8,82.4z"></path></g><g><path d="M17,82.4h-6.7c-2,0-3.6-1.6-3.6-3.6v-41c0-2,1.6-3.6,3.6-3.6H17c0.5,0,1,0.4,1,1c0,0.5-0.4,1-1,1h-6.7     c-1,0-1.7,0.8-1.7,1.7v41c0,1,0.8,1.7,1.7,1.7H17c0.5,0,1,0.4,1,1C17.9,81.9,17.5,82.4,17,82.4z"></path></g></g><g><path d="M71.6,29.4h-2.4v-8.4c0-1.1-0.9-2-2-2H32.9c-1.1,0-2,0.9-2,2v8.4h-2.4v-8.4c0-2.4,2-4.4,4.4-4.4h34.3c2.4,0,4.4,2,4.4,4.4    V29.4z"></path></g><g><path d="M11.3,33.1h0.3v0.6h5.1v-0.6h0.3c0.4,0,0.8-0.4,0.8-0.8c0-0.4-0.4-0.8-0.8-0.8h-5.8c-0.4,0-0.8,0.4-0.8,0.8    C10.5,32.8,10.9,33.1,11.3,33.1z"></path><path d="M12.9,41.6c-1.1,0-2-0.9-2-2c0-1.1,0.9-2,2-2s2,0.9,2,2C14.9,40.7,14,41.6,12.9,41.6z"></path></g></g></g><g id="SvgjsG1378" featurekey="7UBp9i-0" transform="matrix(1.414102149654772,0,0,1.414102149654772,67.1979744492969,-0.6078697269738216)" fill="#ffffff"><path d="M8.5 5.720000000000001 l5.34 14.28 l-3.26 0 l-1.08 -3.18 l-5.34 0 l-1.12 3.18 l-3.18 0 l5.42 -14.28 l3.22 0 z M6.84 9.24 l-1.86 5.24 l3.7 0 l-1.8 -5.24 l-0.04 0 z M18.22 5.720000000000001 l0 11.64 l6.96 0 l0 2.64 l-10.1 0 l0 -14.28 l3.14 0 z M37.620000000000005 5.720000000000001 l0 2.64 l-7.54 0 l0 3.06 l6.92 0 l0 2.44 l-6.92 0 l0 3.5 l7.7 0 l0 2.64 l-10.84 0 l0 -14.28 l10.68 0 z M42.440000000000005 5.720000000000001 l2.8 4.56 l2.9 -4.56 l3.44 0 l-4.58 6.82 l4.98 7.46 l-3.74 0 l-3.12 -4.94 l-3.18 4.94 l-3.54 0 l5 -7.48 l-4.6 -6.8 l3.64 0 z M65.26 5.720000000000001 c1.52 0 2.72 0.41334 3.6 1.24 s1.32 1.94 1.32 3.34 c0 1.4133 -0.44 2.53 -1.32 3.35 s-2.0734 1.23 -3.58 1.23 l-3.34 0 l0 5.12 l-3.14 0 l0 -14.28 l6.46 0 z M64.44 12.440000000000001 c0.90666 0 1.5833 -0.16666 2.03 -0.5 s0.67 -0.88 0.67 -1.64 c0 -0.73334 -0.21666 -1.2733 -0.65 -1.62 s-1.11 -0.52 -2.03 -0.52 l-2.52 0 l0 4.28 l2.5 0 z M75.28 5.720000000000001 l0 5.48 l5.78 0 l0 -5.48 l3.14 0 l0 14.28 l-3.14 0 l0 -6.16 l-5.78 0 l0 6.16 l-3.14 0 l0 -14.28 l3.14 0 z M93.36000000000001 5.380000000000001 c2.1066 0 3.8034 0.7 5.09 2.1 s1.93 3.2134 1.93 5.44 c0 2.1734 -0.64666 3.9534 -1.94 5.34 s-2.9866 2.08 -5.08 2.08 c-2.1066 0 -3.8034 -0.69334 -5.09 -2.08 s-1.93 -3.1666 -1.93 -5.34 c0 -2.2134 0.64666 -4.0234 1.94 -5.43 s2.9866 -2.11 5.08 -2.11 z M89.48000000000002 12.92 c0 1.44 0.33998 2.5966 1.02 3.47 s1.6333 1.31 2.86 1.31 c1.2 0 2.1466 -0.43 2.84 -1.29 s1.04 -2.0234 1.04 -3.49 c0 -1.5333 -0.34334 -2.7334 -1.03 -3.6 s-1.6433 -1.3 -2.87 -1.3 c-1.2 0 -2.1434 0.43334 -2.83 1.3 s-1.03 2.0666 -1.03 3.6 z M113.10000000000002 5.720000000000001 l0 2.64 l-4.28 0 l0 11.64 l-3.14 0 l0 -11.64 l-4.28 0 l0 -2.64 l11.7 0 z M121.14000000000001 5.380000000000001 c2.1066 0 3.8034 0.7 5.09 2.1 s1.93 3.2134 1.93 5.44 c0 2.1734 -0.64666 3.9534 -1.94 5.34 s-2.9866 2.08 -5.08 2.08 c-2.1066 0 -3.8034 -0.69334 -5.09 -2.08 s-1.93 -3.1666 -1.93 -5.34 c0 -2.2134 0.64666 -4.0234 1.94 -5.43 s2.9866 -2.11 5.08 -2.11 z M117.26000000000002 12.92 c0 1.44 0.33998 2.5966 1.02 3.47 s1.6333 1.31 2.86 1.31 c1.2 0 2.1466 -0.43 2.84 -1.29 s1.04 -2.0234 1.04 -3.49 c0 -1.5333 -0.34334 -2.7334 -1.03 -3.6 s-1.6433 -1.3 -2.87 -1.3 c-1.2 0 -2.1434 0.43334 -2.83 1.3 s-1.03 2.0666 -1.03 3.6 z M136.70000000000002 5.380000000000001 c1.6267 0 3.0066 0.47336 4.14 1.42 s1.76 2.1534 1.88 3.62 l-3 0 c-0.18666 -0.8 -0.54666 -1.4 -1.08 -1.8 s-1.18 -0.6 -1.94 -0.6 c-1.2267 0 -2.18 0.44334 -2.86 1.33 s-1.02 2.0766 -1.02 3.57 c0 1.4667 0.34666 2.63 1.04 3.49 s1.64 1.29 2.84 1.29 c2.0534 0 3.1866 -1.0267 3.4 -3.08 l-3.16 0 l0 -2.34 l6 0 l0 7.72 l-2 0 l-0.32 -1.62 c-1 1.3067 -2.3066 1.96 -3.92 1.96 c-2.1066 0 -3.8034 -0.69334 -5.09 -2.08 s-1.93 -3.1666 -1.93 -5.34 c0 -2.2134 0.64 -4.0234 1.92 -5.43 s2.98 -2.11 5.1 -2.11 z M153.18000000000004 5.720000000000001 c1.2 0 2.1968 0.37 2.99 1.11 s1.19 1.6833 1.19 2.83 c0 1.7867 -0.75334 2.98 -2.26 3.58 l0 0.04 c0.50666 0.14666 0.90332 0.39 1.19 0.73 s0.50332 0.73666 0.64998 1.19 s0.24 1.18 0.28 2.18 c0.05334 1.3067 0.24 2.18 0.56 2.62 l-3.14 0 c-0.17334 -0.44 -0.30668 -1.2667 -0.40002 -2.48 c-0.10666 -1.28 -0.34 -2.1166 -0.7 -2.51 s-0.94666 -0.59 -1.76 -0.59 l-3.16 0 l0 5.58 l-3.14 0 l0 -14.28 l7.7 0 z M152.08 12.18 c0.66666 0 1.19 -0.15 1.57 -0.45 s0.57 -0.83 0.57 -1.59 c0 -0.72 -0.18666 -1.23 -0.56 -1.53 s-0.90668 -0.45 -1.6 -0.45 l-3.44 0 l0 4.02 l3.46 0 z M167.04000000000002 5.720000000000001 l5.34 14.28 l-3.26 0 l-1.08 -3.18 l-5.34 0 l-1.12 3.18 l-3.18 0 l5.42 -14.28 l3.22 0 z M165.38000000000002 9.24 l-1.86 5.24 l3.7 0 l-1.8 -5.24 l-0.04 0 z M180.08 5.720000000000001 c1.52 0 2.72 0.41334 3.6 1.24 s1.32 1.94 1.32 3.34 c0 1.4133 -0.44 2.53 -1.32 3.35 s-2.0734 1.23 -3.58 1.23 l-3.34 0 l0 5.12 l-3.14 0 l0 -14.28 l6.46 0 z M179.26000000000002 12.440000000000001 c0.90666 0 1.5833 -0.16666 2.03 -0.5 s0.67 -0.88 0.67 -1.64 c0 -0.73334 -0.21666 -1.2733 -0.65 -1.62 s-1.11 -0.52 -2.03 -0.52 l-2.52 0 l0 4.28 l2.5 0 z M190.10000000000002 5.720000000000001 l0 5.48 l5.78 0 l0 -5.48 l3.14 0 l0 14.28 l-3.14 0 l0 -6.16 l-5.78 0 l0 6.16 l-3.14 0 l0 -14.28 l3.14 0 z M203.76000000000002 5.720000000000001 l3.34 5.64 l3.32 -5.64 l3.5 0 l-5.3 8.8 l0 5.48 l-3.14 0 l0 -5.56 l-5.26 -8.72 l3.54 0 z"></path></g></svg>